<svg width="27" height="22" viewBox="0 0 27 22" fill="none" xmlns="http://www.w3.org/2000/svg">
<path d="M25.3333 13.3333H24V4C24 2.93913 23.5786 1.92172 22.8284 1.17157C22.0783 0.421427 21.0609 0 20 0H6.66667C5.6058 0 4.58839 0.421427 3.83824 1.17157C3.08809 1.92172 2.66667 2.93913 2.66667 4V13.3333H1.33333C0.979711 13.3333 0.640573 13.4738 0.390524 13.7239C0.140476 13.9739 0 14.313 0 14.6667V17.3333C0 18.3942 0.421428 19.4116 1.17157 20.1618C1.92172 20.9119 2.93913 21.3333 4 21.3333H22.6667C23.7275 21.3333 24.7449 20.9119 25.4951 20.1618C26.2452 19.4116 26.6667 18.3942 26.6667 17.3333V14.6667C26.6667 14.313 26.5262 13.9739 26.2761 13.7239C26.0261 13.4738 25.687 13.3333 25.3333 13.3333ZM5.33333 4C5.33333 3.64638 5.47381 3.30724 5.72386 3.05719C5.97391 2.80714 6.31304 2.66667 6.66667 2.66667H20C20.3536 2.66667 20.6928 2.80714 20.9428 3.05719C21.1929 3.30724 21.3333 3.64638 21.3333 4V13.3333H5.33333V4ZM24 17.3333C24 17.687 23.8595 18.0261 23.6095 18.2761C23.3594 18.5262 23.0203 18.6667 22.6667 18.6667H4C3.64638 18.6667 3.30724 18.5262 3.05719 18.2761C2.80714 18.0261 2.66667 17.687 2.66667 17.3333V16H24V17.3333Z" fill="#A53DFF"/>
</svg>
