<svg width="27" height="27" viewBox="0 0 27 27" fill="none" xmlns="http://www.w3.org/2000/svg">
<path d="M7.33333 18.6667C7.86377 18.6667 8.37247 18.456 8.74755 18.0809C9.12262 17.7058 9.33333 17.1971 9.33333 16.6667C9.33984 16.6002 9.33984 16.5332 9.33333 16.4667L13.0533 12.7467H13.36H13.6667L15.8133 14.8933C15.8133 14.8933 15.8133 14.96 15.8133 15C15.8133 15.5304 16.024 16.0391 16.3991 16.4142C16.7742 16.7893 17.2829 17 17.8133 17C18.3438 17 18.8525 16.7893 19.2275 16.4142C19.6026 16.0391 19.8133 15.5304 19.8133 15V14.8933L24.6667 10C25.0622 10 25.4489 9.8827 25.7778 9.66294C26.1067 9.44318 26.363 9.13082 26.5144 8.76537C26.6658 8.39991 26.7054 7.99778 26.6282 7.60982C26.5511 7.22186 26.3606 6.86549 26.0809 6.58579C25.8012 6.30608 25.4448 6.1156 25.0568 6.03843C24.6689 5.96126 24.2668 6.00087 23.9013 6.15224C23.5358 6.30362 23.2235 6.55996 23.0037 6.88886C22.784 7.21776 22.6667 7.60444 22.6667 8C22.6602 8.06651 22.6602 8.13349 22.6667 8.2L17.8533 13.0133H17.64L15.3333 10.6667C15.3333 10.1362 15.1226 9.62753 14.7475 9.25245C14.3725 8.87738 13.8638 8.66667 13.3333 8.66667C12.8029 8.66667 12.2942 8.87738 11.9191 9.25245C11.544 9.62753 11.3333 10.1362 11.3333 10.6667L7.33333 14.6667C6.8029 14.6667 6.29419 14.8774 5.91912 15.2525C5.54405 15.6275 5.33333 16.1362 5.33333 16.6667C5.33333 17.1971 5.54405 17.7058 5.91912 18.0809C6.29419 18.456 6.8029 18.6667 7.33333 18.6667V18.6667ZM25.3333 24H2.66667V1.33333C2.66667 0.979711 2.52619 0.640573 2.27614 0.390524C2.02609 0.140476 1.68696 0 1.33333 0C0.979711 0 0.640573 0.140476 0.390524 0.390524C0.140476 0.640573 0 0.979711 0 1.33333V25.3333C0 25.687 0.140476 26.0261 0.390524 26.2761C0.640573 26.5262 0.979711 26.6667 1.33333 26.6667H25.3333C25.687 26.6667 26.0261 26.5262 26.2761 26.2761C26.5262 26.0261 26.6667 25.687 26.6667 25.3333C26.6667 24.9797 26.5262 24.6406 26.2761 24.3905C26.0261 24.1405 25.687 24 25.3333 24Z" fill="#A53DFF"/>
</svg>
