<svg width="24" height="27" viewBox="0 0 24 27" fill="none" xmlns="http://www.w3.org/2000/svg">
<path d="M17.3333 16H6.66667C6.31305 16 5.97391 16.1405 5.72386 16.3905C5.47381 16.6406 5.33333 16.9797 5.33333 17.3333C5.33333 17.687 5.47381 18.0261 5.72386 18.2761C5.97391 18.5262 6.31305 18.6667 6.66667 18.6667H17.3333C17.687 18.6667 18.0261 18.5262 18.2761 18.2761C18.5262 18.0261 18.6667 17.687 18.6667 17.3333C18.6667 16.9797 18.5262 16.6406 18.2761 16.3905C18.0261 16.1405 17.687 16 17.3333 16ZM17.3333 10.6667H9.33333C8.97971 10.6667 8.64057 10.8071 8.39052 11.0572C8.14048 11.3072 8 11.6464 8 12C8 12.3536 8.14048 12.6928 8.39052 12.9428C8.64057 13.1929 8.97971 13.3333 9.33333 13.3333H17.3333C17.687 13.3333 18.0261 13.1929 18.2761 12.9428C18.5262 12.6928 18.6667 12.3536 18.6667 12C18.6667 11.6464 18.5262 11.3072 18.2761 11.0572C18.0261 10.8071 17.687 10.6667 17.3333 10.6667ZM22.6667 2.66667H18.6667V1.33333C18.6667 0.979711 18.5262 0.640573 18.2761 0.390524C18.0261 0.140476 17.687 0 17.3333 0C16.9797 0 16.6406 0.140476 16.3905 0.390524C16.1405 0.640573 16 0.979711 16 1.33333V2.66667H13.3333V1.33333C13.3333 0.979711 13.1929 0.640573 12.9428 0.390524C12.6928 0.140476 12.3536 0 12 0C11.6464 0 11.3072 0.140476 11.0572 0.390524C10.8071 0.640573 10.6667 0.979711 10.6667 1.33333V2.66667H8V1.33333C8 0.979711 7.85952 0.640573 7.60948 0.390524C7.35943 0.140476 7.02029 0 6.66667 0C6.31305 0 5.97391 0.140476 5.72386 0.390524C5.47381 0.640573 5.33333 0.979711 5.33333 1.33333V2.66667H1.33333C0.979711 2.66667 0.640573 2.80714 0.390524 3.05719C0.140476 3.30724 0 3.64638 0 4V22.6667C0 23.7275 0.421427 24.7449 1.17157 25.4951C1.92172 26.2452 2.93913 26.6667 4 26.6667H20C21.0609 26.6667 22.0783 26.2452 22.8284 25.4951C23.5786 24.7449 24 23.7275 24 22.6667V4C24 3.64638 23.8595 3.30724 23.6095 3.05719C23.3594 2.80714 23.0203 2.66667 22.6667 2.66667ZM21.3333 22.6667C21.3333 23.0203 21.1929 23.3594 20.9428 23.6095C20.6928 23.8595 20.3536 24 20 24H4C3.64638 24 3.30724 23.8595 3.05719 23.6095C2.80714 23.3594 2.66667 23.0203 2.66667 22.6667V5.33333H5.33333V6.66667C5.33333 7.02029 5.47381 7.35943 5.72386 7.60948C5.97391 7.85952 6.31305 8 6.66667 8C7.02029 8 7.35943 7.85952 7.60948 7.60948C7.85952 7.35943 8 7.02029 8 6.66667V5.33333H10.6667V6.66667C10.6667 7.02029 10.8071 7.35943 11.0572 7.60948C11.3072 7.85952 11.6464 8 12 8C12.3536 8 12.6928 7.85952 12.9428 7.60948C13.1929 7.35943 13.3333 7.02029 13.3333 6.66667V5.33333H16V6.66667C16 7.02029 16.1405 7.35943 16.3905 7.60948C16.6406 7.85952 16.9797 8 17.3333 8C17.687 8 18.0261 7.85952 18.2761 7.60948C18.5262 7.35943 18.6667 7.02029 18.6667 6.66667V5.33333H21.3333V22.6667Z" fill="white"/>
</svg>
