<svg width="27" height="27" viewBox="0 0 27 27" fill="none" xmlns="http://www.w3.org/2000/svg">
<path d="M26.6667 6.98669C26.6677 6.81121 26.6341 6.63726 26.5677 6.47481C26.5014 6.31236 26.4036 6.16461 26.28 6.04002L20.6267 0.386689C20.5021 0.263114 20.3543 0.165347 20.1919 0.098994C20.0294 0.0326412 19.8555 -0.000992238 19.68 2.22857e-05C19.5045 -0.000992238 19.3306 0.0326412 19.1681 0.098994C19.0057 0.165347 18.8579 0.263114 18.7334 0.386689L14.96 4.16002L0.386689 18.7334C0.263114 18.8579 0.165347 19.0057 0.098994 19.1681C0.0326412 19.3306 -0.000992238 19.5045 2.22857e-05 19.68V25.3334C2.22857e-05 25.687 0.140498 26.0261 0.390546 26.2762C0.640595 26.5262 0.979734 26.6667 1.33336 26.6667H6.98669C7.17326 26.6768 7.35988 26.6477 7.53445 26.581C7.70902 26.5144 7.86764 26.4119 8.00002 26.28L22.4934 11.7067L26.28 8.00002C26.4017 7.8708 26.5009 7.72206 26.5734 7.56002C26.5862 7.45374 26.5862 7.3463 26.5734 7.24002C26.5796 7.17796 26.5796 7.11542 26.5734 7.05336L26.6667 6.98669ZM6.44002 24H2.66669V20.2267L15.9067 6.98669L19.68 10.76L6.44002 24ZM21.56 8.88002L17.7867 5.10669L19.68 3.22669L23.44 6.98669L21.56 8.88002Z" fill="#A53DFF"/>
</svg>
